PathFileType	4	(X/Y/Z)	C:/Users/opensim2020/Desktop/walking_exp_matlab/subject03_walking15_straight_02.trc	
DataRate	CameraRate	NumFrames	NumMarkers	Units	OrigDataRate	OrigDataStartFrame	OrigNumFrames	
100.00	100.00	5	47	mm	100.00	1159	149	
Frame#	Time	LFHD			RFHD			LBHD			RBHD			C7			T10			CLAV			STRN			RBAK			LSHO			LUPA			LELB			LFRM			LWRA			LWRB			LFIN			RSHO			RUPA			RELB			RFRM			RWRA			RWRB			RFIN			LASI			RASI			LPSI			RPSI			LTHI			LKNE			LTIB			LANK			LHEE			LTOE			RTHI			RKNE			RTIB			RANK			RHEE			RTOE			*39			*40			*41			*42			*43			*44			*45			*46			
		X1	Y1	Z1	X2	Y2	Z2	X3	Y3	Z3	X4	Y4	Z4	X5	Y5	Z5	X6	Y6	Z6	X7	Y7	Z7	X8	Y8	Z8	X9	Y9	Z9	X10	Y10	Z10	X11	Y11	Z11	X12	Y12	Z12	X13	Y13	Z13	X14	Y14	Z14	X15	Y15	Z15	X16	Y16	Z16	X17	Y17	Z17	X18	Y18	Z18	X19	Y19	Z19	X20	Y20	Z20	X21	Y21	Z21	X22	Y22	Z22	X23	Y23	Z23	X24	Y24	Z24	X25	Y25	Z25	X26	Y26	Z26	X27	Y27	Z27	X28	Y28	Z28	X29	Y29	Z29	X30	Y30	Z30	X31	Y31	Z31	X32	Y32	Z32	X33	Y33	Z33	X34	Y34	Z34	X35	Y35	Z35	X36	Y36	Z36	X37	Y37	Z37	X38	Y38	Z38	X39	Y39	Z39	X40	Y40	Z40	X41	Y41	Z41	X42	Y42	Z42	X43	Y43	Z43	X44	Y44	Z44	X45	Y45	Z45	X46	Y46	Z46	X47	Y47	Z47	

75	0.740	-920.85864	-9.20659	1588.32642	-1053.37891	-6.92181	1598.91382	-925.18231	120.68747	1551.46826	-1055.46069	118.03724	1561.08643	-982.60468	153.57133	1388.43359	-987.98541	183.04492	1075.06580	-991.99426	29.61778	1315.71899	-982.02802	-18.25280	1152.33704	-1067.99622	209.65514	1207.92017	-835.14636	66.15208	1355.73657	-757.24323	16.79850	1175.22913	-746.29437	-38.07380	1065.63672	-766.97974	-129.44492	977.74670	-818.75568	-207.02402	899.69440	-765.58502	-196.60793	885.76483	-789.50732	-260.26663	837.51196	-1147.94604	93.32731	1334.73621	-1214.55396	135.86455	1115.41467	-1225.98535	144.12767	1001.77930	-1227.65295	163.08725	865.68390	-1194.84631	155.61594	764.58575	-1236.15930	191.55969	768.65289	-1225.60144	189.18806	693.19373	-860.20612	30.21497	913.92462	-1097.24487	6.44696	910.34564	-931.37079	185.49274	939.28290	-1078.60620	169.63943	938.50909	-830.61548	148.39323	625.90887	-868.74335	194.59276	453.25174	-870.59692	313.23987	290.73196	-915.21100	407.79507	101.09245	-951.37701	457.09299	81.74797	-944.17505	272.89691	27.71127	-1154.33838	-2.20598	620.09631	-1110.76904	-93.03487	469.03214	-1119.70227	-134.34021	288.08859	-1079.67163	-213.41402	83.66637	-1025.31555	-186.51100	38.75527	-1062.69482	-358.68613	94.37740																								 
76	0.750	-921.43280	-23.45729	1587.16858	-1053.89868	-21.19851	1597.63855	-925.81378	106.38161	1550.18542	-1056.01440	103.75818	1559.68677	-983.07098	138.92287	1386.77966	-988.48822	167.59808	1073.36658	-992.30768	14.73274	1314.43848	-982.16296	-33.55322	1151.15674	-1068.54773	194.35304	1205.95581	-835.54895	52.04661	1354.55786	-757.86981	1.95652	1174.33594	-746.96588	-53.53795	1065.34680	-768.74573	-146.95500	980.31744	-821.62408	-226.51546	905.30219	-768.55920	-216.75166	890.50037	-793.14514	-281.86148	844.65527	-1148.43616	78.23979	1333.05505	-1214.39124	121.31985	1113.76917	-1225.70850	130.17058	1000.16223	-1227.38733	150.51776	864.27063	-1194.71716	143.96693	763.17438	-1235.96082	180.04195	767.51605	-1225.14648	178.87160	691.99530	-860.26630	15.46908	912.26855	-1097.45667	-9.70273	909.44653	-932.78314	170.44823	937.44702	-1079.43262	154.03058	937.25537	-830.42310	135.01436	624.95929	-867.39813	182.25800	452.08221	-869.40424	304.59250	292.08481	-913.90656	404.57956	105.34135	-949.89856	454.74332	88.05868	-944.08350	272.63623	27.57558	-1154.04077	-22.72795	621.50787	-1110.72583	-112.81300	470.54761	-1119.68506	-150.95938	287.33881	-1079.28357	-225.12270	81.47186	-1024.94080	-197.09061	36.81908	-1061.60095	-370.20883	89.44815																								 
77	0.760	-921.99805	-37.73199	1586.11841	-1054.45935	-35.54134	1596.56555	-926.44702	92.00895	1548.99634	-1056.69995	89.39984	1558.53516	-983.91583	124.25827	1385.33496	-988.81274	152.00580	1071.89063	-992.73187	-0.19296	1313.34497	-982.56958	-48.90602	1150.19800	-1069.13074	178.97203	1204.40564	-835.89288	37.73037	1353.54883	-758.26324	-12.45086	1173.30798	-747.64502	-68.31422	1064.83984	-770.27472	-163.65286	982.80591	-824.37982	-245.23199	910.76416	-771.44397	-236.00493	895.13379	-796.52502	-302.45374	851.68335	-1149.00024	63.05331	1331.71008	-1214.54590	106.54436	1112.45642	-1225.55774	115.75129	998.76215	-1227.19617	137.35847	863.05444	-1194.52893	131.76653	761.54480	-1235.90186	167.73827	766.52997	-1224.80359	167.87018	690.95361	-860.59479	0.13898	910.65137	-1098.06372	-26.08724	909.31738	-933.59808	154.51332	935.68738	-1079.88623	138.31424	936.13586	-830.32910	120.61996	623.75958	-865.82251	168.78769	450.80850	-868.20502	295.18253	293.54089	-912.62653	400.72101	110.09213	-948.57153	451.24377	94.84819	-944.20062	272.22916	27.23133	-1154.00378	-43.77151	623.33704	-1110.30591	-132.80371	472.14227	-1119.31348	-166.73311	286.26898	-1078.08130	-234.33946	78.21832	-1024.11536	-204.50012	34.40582	-1060.39893	-378.84659	82.71190																								 
78	0.770	-922.58105	-52.07643	1585.25464	-1055.04761	-49.99060	1595.64429	-927.11420	77.65517	1547.98364	-1057.36206	74.89515	1557.44702	-984.50043	109.45104	1384.10864	-988.97955	136.17122	1070.51636	-993.26685	-15.23365	1312.47180	-983.13867	-64.54677	1149.49036	-1069.75732	163.48708	1203.12964	-836.35895	23.22939	1352.70996	-758.53644	-26.41603	1172.25696	-748.25128	-82.74841	1064.28296	-771.70618	-179.72404	985.12958	-826.98773	-263.09131	916.01556	-774.27155	-254.32693	899.50787	-799.68457	-322.07959	858.47852	-1149.64758	47.87398	1330.59192	-1214.69189	91.36314	1111.23083	-1225.47217	100.84004	997.52942	-1227.23987	123.35023	861.98645	-1194.54102	118.71935	760.58044	-1236.09424	154.76730	765.76196	-1224.43591	155.98436	689.99982	-861.22906	-16.13442	909.17352	-1098.93848	-42.73455	909.64618	-934.09753	137.99940	934.03656	-1080.06323	122.31813	935.10559	-830.09924	105.27715	622.48535	-864.12640	154.16055	449.22507	-866.96979	284.89371	295.17297	-911.54242	396.10272	115.47633	-947.51569	446.79791	102.32703	-944.02448	271.78476	27.34006	-1154.02112	-64.86968	625.36499	-1109.72778	-152.48067	473.33990	-1118.75244	-181.61995	284.80652	-1076.66370	-240.76466	74.52830	-1022.74255	-209.54007	31.47490	-1058.73999	-385.06216	75.38006																								 
79	0.780	-923.13788	-66.46206	1584.47107	-1055.61963	-64.50568	1594.80286	-927.80731	63.23061	1547.08008	-1058.10938	60.36812	1556.48413	-985.25940	94.58050	1382.99902	-989.05353	120.02436	1069.10938	-993.93665	-30.38441	1311.69958	-983.75055	-80.44001	1148.99512	-1070.30847	147.77913	1201.97327	-836.94812	8.62600	1351.90735	-758.76886	-40.04605	1171.18420	-748.76398	-96.67912	1063.58179	-773.06793	-195.17453	987.21899	-829.41040	-280.11823	921.00403	-776.94849	-271.82806	903.58295	-802.60760	-340.71466	865.01257	-1150.30603	32.64663	1329.63000	-1214.80103	75.85275	1110.12659	-1225.48389	85.54942	996.53503	-1227.38342	108.76031	861.10913	-1194.61047	105.08086	759.30579	-1236.19531	140.66811	764.96106	-1224.20227	143.34799	689.13116	-861.94073	-32.80412	907.55634	-1100.03503	-59.75874	910.21967	-934.54260	121.07325	932.36774	-1080.09058	105.77451	934.10040	-829.45886	88.84444	621.19983	-862.07684	138.26424	447.69629	-865.75977	273.75427	296.98828	-910.76514	390.72748	121.51948	-947.04321	441.39951	111.03467	-944.01923	271.07333	27.20032	-1153.91235	-85.78896	627.03711	-1108.91077	-171.32236	474.02795	-1118.00146	-195.52058	282.84122	-1075.14343	-245.90816	70.41193	-1021.64954	-212.33832	28.76481	-1056.53381	-389.41345	68.18449																								 
